<svg width="600" height="128" viewBox="0 0 600 128" fill="none" xmlns="http://www.w3.org/2000/svg">
<g clip-path="url(#clip0_1_2)">
<path d="M217.371 24.82V64.481V84.7348H218.845L239.253 64.4938V64.481V20.7666L217.371 24.82Z" fill="#48BFDD"/>
<path d="M239.253 20.7666L217.371 24.82V20.7666H239.253Z" fill="#1F8CA9"/>
<path d="M217.371 64.481V84.7348L213.274 64.481H217.371Z" fill="#1F8CA9"/>
<path d="M218.845 0.5H180.626L184.736 20.7666H217.371H239.253V20.741L218.845 0.5Z" fill="#19A3BD"/>
<path d="M180.626 0.5L184.736 20.7666H180.626V0.5Z" fill="#1F8CA9"/>
<path d="M213.274 64.481H180.626H158.757V64.4938L179.152 84.7348H217.371L213.274 64.481Z" fill="#19A3BD"/>
<path d="M180.626 60.4149V64.481H158.757L180.626 60.4149Z" fill="#1F8CA9"/>
<path d="M179.152 0.5L158.757 20.741V20.7666V64.481L180.626 60.4149V20.7666V0.5H179.152Z" fill="#48BFDD"/>
<path d="M103.503 64.481L107.535 84.7348H155.306V64.481H103.503Z" fill="#19A3BD"/>
<path d="M138.025 33.5423V53.7961H107.535L103.438 33.5423H138.025Z" fill="#19A3BD"/>
<path d="M138.025 0.5V20.7666H107.535L103.503 0.5H138.025Z" fill="#19A3BD"/>
<path d="M103.503 0.5L107.535 20.7666H103.438V0.5H103.503Z" fill="#1F8CA9"/>
<path d="M103.438 33.5423L107.535 53.7961H103.438V33.5423Z" fill="#1F8CA9"/>
<path d="M103.503 64.481L107.535 84.7348H103.438V64.481H103.503Z" fill="#1F8CA9"/>
<path d="M138.025 0.5V20.7666V33.5423V53.7961L155.306 36.6465V17.3803L138.025 0.5Z" fill="#48BFDD"/>
<path d="M81.5562 66.5718L103.438 84.7348V64.481V64.1988V53.7961V33.5423V20.7666V0.5L81.5562 18.6758V66.5718Z" fill="#48BFDD"/>
<path d="M75.7141 0.5V84.7348H53.8452V45.5484V0.5H75.7141Z" fill="#48BFDD"/>
<path d="M53.8452 45.5484V84.7348L50.4459 40.7511L53.8452 45.5484Z" fill="#1F8CA9"/>
<path d="M50.4459 40.7511L53.8452 84.7348L25.2682 44.4966L21.8689 0.5L50.4459 40.7511Z" fill="#19A3BD"/>
<path d="M21.8689 0.5L25.2682 44.4966L21.8689 39.6993V0.5Z" fill="#1F8CA9"/>
<path d="M21.8689 39.6993V84.7348H0V0.5H21.8689V39.6993Z" fill="#48BFDD"/>
<path d="M263.94 9.35062H273.905V38.0061C273.905 38.6859 274.357 39.1349 275.042 39.1349H288.342V44.1887H269.484C266.705 44.1887 265.012 42.5084 265.012 39.6993V12.7241C265.012 10.4794 263.371 11.0438 263.371 9.91501C263.371 9.58151 263.603 9.35062 263.94 9.35062ZM290.552 5.41274C290.552 5.07923 290.785 4.84835 291.121 4.84835H300.582V56.5411H292.258V27.8856H282.241V22.8318H292.258V8.22185C292.258 5.97712 290.565 6.54151 290.565 5.41274H290.552ZM302.779 4.84835H312.175V56.5411H303.852V8.22185C303.852 5.97712 302.21 6.54151 302.21 5.41274C302.21 5.07923 302.443 4.84835 302.779 4.84835Z" fill="white"/>
<path d="M318.857 44.7531H339.124V36.0436C329.495 34.8122 323.265 29.7455 323.265 21.7158C323.265 12.4419 331.588 7.1059 343.815 7.1059C356.042 7.1059 364.366 12.4419 364.366 21.7158C364.366 29.7455 358.136 34.8122 348.507 36.0436V44.7531H368.773V49.8069H318.832V44.7531H318.857ZM354.931 21.7158C354.931 16.3798 351.028 12.1597 343.828 12.1597C336.629 12.1597 332.726 16.3798 332.726 21.7158C332.726 27.0519 336.629 31.2719 343.828 31.2719C351.028 31.2719 354.931 27.0519 354.931 21.7158Z" fill="white"/>
<path d="M389.583 8.78623C389.583 8.45273 389.802 8.22185 390.087 8.22185H400.672V27.8856C400.672 28.5654 401.073 29.0144 401.745 29.0144H430.05V34.0682H415.329V45.5869H435.595V50.6407H385.653V45.5869H405.92V34.0682H395.618C392.84 34.0682 391.198 32.3879 391.198 29.5788V11.5953C391.198 9.35062 389.557 9.91501 389.557 8.78623H389.583Z" fill="white"/>
<path d="M491.108 35.197V40.2508H470.841V57.6699H461.445V40.2508H441.179V35.197H491.121H491.108ZM445.586 7.1059H483.353C484.71 7.1059 485.563 7.95248 485.563 9.35062V24.5249C485.563 27.3341 483.921 29.0144 481.143 29.0144H451.131C448.352 29.0144 446.711 27.3341 446.711 24.5249V10.4666C446.711 8.22185 445.069 8.78623 445.069 7.65746C445.069 7.32396 445.289 7.09307 445.573 7.09307L445.586 7.1059ZM457.257 23.9606H475.042C475.727 23.9606 476.115 23.5116 476.115 22.8318V12.1597H456.185V22.8318C456.185 23.5116 456.585 23.9606 457.257 23.9606Z" fill="white"/>
<path d="M497.234 7.37527C497.234 7.04176 497.467 6.81088 497.803 6.81088H508.337V14.3916H516.092V10.1715C516.092 7.92683 514.45 8.49121 514.45 7.36244C514.45 7.02894 514.683 6.79805 514.954 6.79805H525.54V16.3542H533.295V8.20902C533.295 5.9643 531.601 6.52868 531.601 5.39991C531.601 5.06641 531.821 4.83552 532.17 4.83552H542.704V33.2088H533.307V21.408H525.553V27.0262C525.553 29.8353 523.859 31.5157 521.081 31.5157H503.361C500.582 31.5157 498.888 29.8353 498.888 27.0262V10.1844C498.888 7.93965 497.247 8.50404 497.247 7.37527H497.234ZM503.852 36.5951H514.437V42.2134H533.295V39.9686C533.295 37.7239 531.601 38.2883 531.601 37.1595C531.601 36.826 531.821 36.5951 532.17 36.5951H542.704V53.1676C542.704 55.9767 541.062 57.6571 538.284 57.6571H509.409C506.63 57.6571 504.989 55.9767 504.989 53.1676V39.9686C504.989 37.7239 503.348 38.2883 503.348 37.1595C503.348 36.826 503.58 36.5951 503.852 36.5951ZM509.409 26.4875H514.954C515.639 26.4875 516.092 26.0385 516.092 25.3587V19.4583H508.337V25.3587C508.337 26.0385 508.789 26.4875 509.409 26.4875ZM515.523 52.616H532.17C532.855 52.616 533.307 52.1671 533.307 51.4873V47.2672H514.45V51.4873C514.45 52.1671 514.851 52.616 515.523 52.616Z" fill="white"/>
<path d="M567.675 6.54151C576.567 6.54151 582.681 12.1597 582.681 20.8693C582.681 29.5788 576.567 35.197 567.675 35.197C558.782 35.197 552.721 29.5788 552.721 20.8693C552.721 12.1597 558.834 6.54151 567.675 6.54151ZM559.351 39.1349H569.937V51.5001C569.937 52.1799 570.337 52.6289 571.009 52.6289H599.315V57.6827H564.896C562.117 57.6827 560.476 56.0024 560.476 53.1933V42.5212C560.476 40.2765 558.834 40.8409 558.834 39.7121C558.834 39.3786 559.067 39.1477 559.338 39.1477L559.351 39.1349ZM567.675 30.1432C571.009 30.1432 573.116 26.2053 573.116 20.8693C573.116 15.5332 571.022 11.5953 567.675 11.5953C564.327 11.5953 562.233 15.5332 562.233 20.8693C562.233 26.2053 564.379 30.1432 567.675 30.1432ZM587.101 5.41274C587.101 5.07923 587.321 4.84835 587.67 4.84835H598.203V44.7403H588.807V8.22185C588.807 5.97712 587.114 6.54151 587.114 5.41274H587.101Z" fill="white"/>
<path d="M377.769 67.3286H380.897V79.1294H388.096L387.734 81.6692H377.769V67.3286Z" fill="white"/>
<path d="M398.914 78.8857C398.914 79.9119 398.992 81.4126 399.056 81.6692H396.187C396.097 81.4511 396.045 80.8867 396.032 80.6174C395.644 81.2202 394.908 81.9129 392.982 81.9129C390.371 81.9129 389.259 80.2069 389.259 78.5394C389.259 76.0894 391.25 74.9478 394.429 74.9478H395.98V74.2937C395.98 73.524 395.709 72.7801 394.313 72.7801C393.046 72.7801 392.762 73.3188 392.633 74.1013H389.776C389.944 72.19 391.134 70.638 394.429 70.6508C397.337 70.6636 398.914 71.7924 398.914 74.3578V78.8857ZM395.98 76.7693H394.753C392.943 76.7693 392.271 77.3208 392.271 78.3598C392.271 79.1423 392.749 79.7964 393.835 79.7964C395.748 79.7964 395.98 78.4753 395.98 77.0515V76.7693Z" fill="white"/>
<path d="M401.629 66.482H404.627V72.0489C405.079 71.3563 405.971 70.6508 407.729 70.6508C410.689 70.6508 412.162 73.0751 412.162 76.0894C412.162 79.1038 410.56 81.9129 407.445 81.9129C405.829 81.9129 405.118 81.4255 404.588 80.643C404.588 81.0022 404.537 81.387 404.472 81.6692H401.603C401.629 80.5019 401.629 79.3218 401.629 78.1417V66.4692V66.482ZM409.125 76.1536C409.125 74.3578 408.453 73.0366 406.824 73.0366C405.105 73.0366 404.498 74.1397 404.498 76.346C404.498 78.1546 405.041 79.5527 406.786 79.5527C408.311 79.5527 409.112 78.1931 409.112 76.1536H409.125Z" fill="white"/>
<path d="M424.454 76.269C424.454 79.5271 422.489 81.9257 419.051 81.9257C415.613 81.9257 413.726 79.5399 413.726 76.3331C413.726 73.1264 415.755 70.6636 419.193 70.6636C422.386 70.6636 424.454 72.8955 424.454 76.2818V76.269ZM416.777 76.2818C416.777 78.3598 417.681 79.5784 419.129 79.5784C420.576 79.5784 421.417 78.347 421.417 76.2947C421.417 74.0371 420.589 72.9725 419.09 72.9725C417.694 72.9725 416.789 73.9986 416.789 76.269L416.777 76.2818Z" fill="white"/>
<path d="M426.522 73.8191C426.522 72.7544 426.522 71.7924 426.496 70.8945H429.443C429.482 71.1382 429.521 72.2029 429.521 72.7801C429.999 71.5487 431.162 70.6508 432.997 70.638V73.4856C430.813 73.4343 429.521 74.0115 429.521 76.9617V81.6564H426.522V73.8062V73.8191Z" fill="white"/>
<path d="M440.235 67.3286H443.363V79.1294H450.562L450.2 81.6692H440.235V67.3286Z" fill="white"/>
<path d="M461.38 78.8857C461.38 79.9119 461.458 81.4126 461.523 81.6692H458.653C458.563 81.4511 458.511 80.8867 458.498 80.6174C458.11 81.2202 457.374 81.9129 455.448 81.9129C452.837 81.9129 451.725 80.2069 451.725 78.5394C451.725 76.0894 453.716 74.9478 456.895 74.9478H458.446V74.2937C458.446 73.524 458.175 72.7801 456.779 72.7801C455.512 72.7801 455.228 73.3188 455.099 74.1013H452.242C452.41 72.19 453.6 70.638 456.895 70.6508C459.804 70.6636 461.38 71.7924 461.38 74.3578V78.8857ZM458.446 76.7693H457.219C455.409 76.7693 454.737 77.3208 454.737 78.3598C454.737 79.1423 455.215 79.7964 456.301 79.7964C458.214 79.7964 458.446 78.4753 458.446 77.0515V76.7693Z" fill="white"/>
<path d="M465.878 70.8945C466.861 75.2172 467.39 77.68 467.597 79.014H467.636C467.856 77.8211 468.166 76.1279 469.497 70.8945H472.289C473.517 76.1921 473.879 77.7441 474.034 78.9114H474.06C474.279 77.8083 474.615 76.1921 475.882 70.8945H478.855L475.637 81.6692H472.418C471.526 77.5774 471.009 75.4353 470.764 74.0115H470.738C470.57 75.3583 469.975 77.8083 469.019 81.6692H465.788L462.712 70.8945H465.891H465.878Z" fill="white"/>
<path d="M498.268 77.2439C497.686 79.9247 495.657 81.8744 492.038 81.8744C487.45 81.8744 485.291 78.6548 485.291 74.5758C485.291 70.4969 487.527 67.1234 492.193 67.1234C496.045 67.1234 497.906 69.3681 498.255 71.7667H495.127C494.83 70.6636 494.055 69.5605 492.09 69.5605C489.518 69.5605 488.523 71.8565 488.523 74.4732C488.523 76.8975 489.389 79.4501 492.18 79.4501C494.223 79.4501 494.869 78.0904 495.14 77.2567H498.281L498.268 77.2439Z" fill="white"/>
<path d="M510.547 76.269C510.547 79.5271 508.582 81.9257 505.144 81.9257C501.706 81.9257 499.819 79.5399 499.819 76.3331C499.819 73.1264 501.848 70.6636 505.286 70.6636C508.479 70.6636 510.547 72.8955 510.547 76.2818V76.269ZM502.869 76.2818C502.869 78.3598 503.774 79.5784 505.222 79.5784C506.669 79.5784 507.509 78.347 507.509 76.2947C507.509 74.0371 506.682 72.9725 505.183 72.9725C503.787 72.9725 502.882 73.9986 502.882 76.269L502.869 76.2818Z" fill="white"/>
<path d="M512.615 73.8191C512.615 72.7544 512.615 71.7924 512.589 70.8945H515.536C515.575 71.1382 515.613 72.2029 515.613 72.7801C516.092 71.5487 517.255 70.6508 519.09 70.638V73.4856C516.906 73.4343 515.613 74.0115 515.613 76.9617V81.6564H512.615V73.8062V73.8191Z" fill="white"/>
<path d="M523.691 80.72V85.7995H520.706V73.4984C520.706 72.6261 520.706 71.7667 520.68 70.9073H523.588C523.627 71.1895 523.691 71.8565 523.691 72.2542C524.157 71.4589 525.126 70.6636 526.845 70.6636C529.288 70.6636 531.162 72.6903 531.162 76.0253C531.162 79.8221 529.055 81.9257 526.431 81.9257C524.906 81.9257 524.105 81.3485 523.691 80.72ZM528.125 76.1279C528.125 74.1526 527.323 73.0366 525.889 73.0366C524.183 73.0366 523.575 74.1269 523.575 76.2947C523.575 78.347 524.131 79.5527 525.759 79.5527C527.388 79.5527 528.125 78.3213 528.125 76.1279Z" fill="white"/>
<path d="M543.466 76.269C543.466 79.5271 541.502 81.9257 538.064 81.9257C534.626 81.9257 532.739 79.5399 532.739 76.3331C532.739 73.1264 534.768 70.6636 538.206 70.6636C541.398 70.6636 543.466 72.8955 543.466 76.2818V76.269ZM535.789 76.2818C535.789 78.3598 536.694 79.5784 538.141 79.5784C539.589 79.5784 540.429 78.347 540.429 76.2947C540.429 74.0371 539.602 72.9725 538.103 72.9725C536.707 72.9725 535.802 73.9986 535.802 76.269L535.789 76.2818Z" fill="white"/>
<path d="M545.534 73.8191C545.534 72.7544 545.534 71.7924 545.509 70.8945H548.455C548.494 71.1382 548.533 72.2029 548.533 72.7801C549.011 71.5487 550.174 70.6508 552.01 70.638V73.4856C549.826 73.4343 548.533 74.0115 548.533 76.9617V81.6564H545.534V73.8062V73.8191Z" fill="white"/>
<path d="M562.44 78.8857C562.44 79.9119 562.518 81.4126 562.582 81.6692H559.713C559.623 81.4511 559.571 80.8867 559.558 80.6174C559.17 81.2202 558.434 81.9129 556.508 81.9129C553.897 81.9129 552.785 80.2069 552.785 78.5394C552.785 76.0894 554.776 74.9478 557.955 74.9478H559.506V74.2937C559.506 73.524 559.235 72.7801 557.839 72.7801C556.572 72.7801 556.288 73.3188 556.159 74.1013H553.302C553.47 72.19 554.659 70.638 557.955 70.6508C560.863 70.6636 562.44 71.7924 562.44 74.3578V78.8857ZM559.506 76.7693H558.278C556.469 76.7693 555.797 77.3208 555.797 78.3598C555.797 79.1423 556.275 79.7964 557.361 79.7964C559.274 79.7964 559.506 78.4753 559.506 77.0515V76.7693Z" fill="white"/>
<path d="M563.888 70.8945H565.555V67.9828H568.567V70.8945H570.686V73.1392H568.567V78.4496C568.567 79.2705 568.812 79.5784 569.717 79.5784C569.885 79.5784 570.182 79.5784 570.402 79.5399V81.5922C569.807 81.7974 568.993 81.7974 568.386 81.7974C566.266 81.7974 565.568 80.6687 565.568 78.7831V73.1136H563.901V70.8689L563.888 70.8945Z" fill="white"/>
<path d="M572.367 66.482H575.365V69.1372H572.367V66.482ZM572.367 70.8945H575.365V81.6692H572.367V70.8945Z" fill="white"/>
<path d="M588.174 76.269C588.174 79.5271 586.209 81.9257 582.771 81.9257C579.333 81.9257 577.446 79.5399 577.446 76.3331C577.446 73.1264 579.475 70.6636 582.913 70.6636C586.106 70.6636 588.174 72.8955 588.174 76.2818V76.269ZM580.483 76.2818C580.483 78.3598 581.388 79.5784 582.836 79.5784C584.283 79.5784 585.123 78.347 585.123 76.2947C585.123 74.0371 584.296 72.9725 582.797 72.9725C581.401 72.9725 580.496 73.9986 580.496 76.269L580.483 76.2818Z" fill="white"/>
<path d="M590.255 73.6138C590.255 72.7031 590.255 71.6898 590.229 70.8945H593.137C593.201 71.1767 593.24 71.9207 593.253 72.267C593.628 71.5872 594.494 70.6508 596.407 70.6508C598.591 70.6508 600 72.1131 600 74.8196V81.6692H597.001V75.1531C597.001 73.9473 596.601 73.0623 595.269 73.0623C593.938 73.0623 593.266 73.7678 593.266 75.6661V81.6692H590.268V73.6138H590.255Z" fill="white"/>
<path d="M134.587 115.943C134.962 114.16 135.156 112.428 135.156 110.735V109.568H124.26V107.413H137.599V110.466C137.599 112.197 137.392 114.019 136.991 115.943H139.822V118.123H122.244V115.943H134.6H134.587ZM137.973 126.487H124.506V120.112H126.987V124.332H137.973V126.487Z" fill="white"/>
<path d="M164.935 116.815H147.357V114.75H153.574V111.312H156.017V114.75H164.948V116.815H164.935ZM162.22 113.673H159.829C160.127 112.441 160.282 111.12 160.282 109.709V109.414H149.386V107.349H162.725V109.478C162.725 111.017 162.557 112.415 162.233 113.673H162.22ZM162.996 126.487H149.528V121.356H160.333V120.06H149.528V118.149H162.776V123.241H151.971V124.563H162.996V126.487Z" fill="white"/>
<path d="M182.719 107.695C182.719 108.349 182.681 108.978 182.59 109.581H186.313V106.913H188.755V118.239H186.313V116.084H181.789V113.98H186.313V111.697H182.021C181.543 112.954 180.807 114.057 179.824 114.994C178.105 116.636 176.089 117.764 173.762 118.38L172.522 116.674C174.706 115.969 176.451 115.032 177.743 113.852C179.088 112.621 179.837 111.3 180.005 109.863H173.879V107.708H182.719V107.695ZM186.313 126.73V121.689H176.076V119.509H188.755V126.73H186.313Z" fill="white"/>
<path d="M206.062 107.785C206.062 108.721 206.01 109.619 205.907 110.479H208.169V106.913H210.456V126.487H208.169V118.123H205.338V115.904H208.169V112.698H205.519C205.17 114.147 204.653 115.455 203.981 116.623C202.546 119.06 200.879 121.01 198.992 122.472L197.182 120.92C199.005 119.56 200.569 117.777 201.887 115.558C202.856 113.929 203.373 112.069 203.451 109.978H198.281V107.785H206.075H206.062ZM212.124 106.9H214.476V126.474H212.124V106.9Z" fill="white"/>
<path d="M245.599 116.417H236.216V107.631H245.599V116.417ZM251.79 121.523H246.207C246.375 122.267 247.047 122.972 248.223 123.626C249.334 124.242 250.847 124.717 252.747 125.063L251.454 126.795C249.386 126.487 247.628 125.845 246.168 124.883C245.651 124.55 245.224 124.216 244.875 123.857C244.513 124.216 244.074 124.563 243.57 124.883C242.109 125.845 240.352 126.474 238.284 126.795L236.991 125.063C238.891 124.717 240.39 124.242 241.515 123.626C242.691 122.972 243.363 122.267 243.531 121.523H237.948V119.457H243.557V117.598H246.207V119.457H251.816V121.523H251.79ZM243.169 109.645H238.633V114.404H243.169V109.645ZM251.157 106.9V117.572H248.714V106.9H251.157Z" fill="white"/>
<path d="M273.349 117.867V107.618H275.792V115.686H278.958C281.143 115.686 283.146 115.532 284.968 115.237V106.9H287.411V112.056H290.125V114.301H287.411V121.228H284.968V117.418C283.133 117.713 281.065 117.867 278.777 117.867H273.349ZM287.967 126.487H275.171V120.201H277.653V124.306H287.954V126.487H287.967Z" fill="white"/>
<path d="M304.42 110.876V111.453C304.42 112.339 304.847 113.198 305.713 114.057C306.462 114.801 307.548 115.52 308.97 116.212L307.677 117.957C306.152 117.29 304.834 116.392 303.722 115.289C303.541 115.109 303.386 114.93 303.244 114.75C303.063 115.007 302.869 115.263 302.65 115.507C301.499 116.879 300.258 117.931 298.901 118.675L297.325 116.995C298.656 116.302 299.754 115.443 300.62 114.391C301.499 113.339 301.926 112.364 301.926 111.453V110.876H297.609V108.747H301.926V106.592H304.407V108.747H308.608V110.876H304.407H304.42ZM313.274 122.805C313.274 123.447 313.132 124.05 312.86 124.627C312.589 125.204 312.214 125.691 311.749 126.102C311.283 126.538 310.741 126.871 310.107 127.128C309.487 127.372 308.815 127.5 308.104 127.5C307.393 127.5 306.734 127.372 306.101 127.128C305.48 126.884 304.924 126.538 304.459 126.102C303.994 125.679 303.619 125.191 303.348 124.627C303.076 124.062 302.947 123.447 302.947 122.805C302.947 122.164 303.076 121.561 303.348 120.984C303.619 120.42 303.994 119.919 304.459 119.509C304.924 119.073 305.467 118.739 306.101 118.483C306.721 118.239 307.393 118.111 308.104 118.111C308.815 118.111 309.474 118.239 310.107 118.483C310.728 118.726 311.283 119.073 311.749 119.509C312.214 119.932 312.589 120.42 312.86 120.984C313.132 121.548 313.274 122.164 313.274 122.805ZM310.844 122.805C310.844 122.1 310.573 121.497 310.043 120.997C309.513 120.496 308.866 120.24 308.13 120.24C307.393 120.24 306.76 120.496 306.217 120.997C305.687 121.497 305.416 122.1 305.416 122.805C305.416 123.511 305.687 124.114 306.217 124.614C306.747 125.114 307.393 125.371 308.13 125.371C308.866 125.371 309.5 125.127 310.043 124.614C310.585 124.101 310.844 123.511 310.844 122.805ZM313.545 106.9V118.38H311.102V114.275H307.755V112.146H311.102V106.9H313.545Z" fill="white"/>
<path d="M341.282 109.286C341.282 111.261 341.709 112.826 342.549 113.993C343.531 115.327 344.72 116.443 346.116 117.328L344.643 118.97C343.169 118.059 341.812 116.802 340.571 115.199C340.377 114.942 340.196 114.673 340.028 114.391C339.847 114.711 339.654 115.007 339.447 115.314C338.271 116.995 336.926 118.303 335.427 119.239L333.799 117.649C335.259 116.764 336.5 115.597 337.508 114.121C338.361 112.877 338.801 111.261 338.801 109.273V107.413H341.282V109.273V109.286ZM350.368 126.487H337.573V120.201H340.054V124.306H350.355V126.487H350.368ZM349.8 106.9V112.056H352.514V114.301H349.8V121.228H347.357V106.9H349.8Z" fill="white"/>
<path d="M363.229 112.172V109.927H359.842V107.772H368.541V109.927H365.607V112.172C365.607 114.224 365.956 115.866 366.667 117.11C367.416 118.444 368.373 119.534 369.51 120.407L368.063 121.907C366.615 120.817 365.465 119.47 364.599 117.867C364.534 117.764 364.482 117.662 364.444 117.546L364.224 117.944C363.086 119.932 361.936 121.343 360.76 122.164L359.093 120.727C360.308 119.791 361.342 118.547 362.169 117.02C362.88 115.699 363.229 114.083 363.229 112.159V112.172ZM374.228 115.468H372.379V126.487H370.027V106.913H372.379V113.288H374.228V106.913H376.619V126.487H374.228V115.468Z" fill="white"/>
<path d="M400.22 118.521H394.817V122.241H402.391V124.434H384.813V122.241H392.387V118.521H386.985V107.554H389.427V110.735H397.79V107.554H400.233V118.521H400.22ZM397.777 116.353V112.941H389.415V116.353H397.777Z" fill="white"/>
<path d="M416.673 109.132C416.673 110.697 417.1 112.005 417.94 113.031C418.78 114.044 419.917 114.955 421.326 115.75L419.93 117.482C418.405 116.7 417.074 115.635 415.936 114.275C415.794 114.109 415.678 113.942 415.549 113.788C415.381 114.096 415.187 114.404 414.967 114.686C413.804 116.212 412.473 117.392 410.973 118.226L409.409 116.584C410.857 115.802 412.059 114.776 413.002 113.493C413.804 112.415 414.204 110.966 414.204 109.145V107.439H416.686V109.145L416.673 109.132ZM425.191 122.741C425.191 123.383 425.048 123.998 424.777 124.575C424.493 125.153 424.131 125.666 423.653 126.102C423.174 126.525 422.619 126.859 421.985 127.115C421.352 127.372 420.68 127.5 419.956 127.5C419.232 127.5 418.56 127.372 417.927 127.115C417.294 126.859 416.738 126.525 416.26 126.102C415.794 125.666 415.419 125.165 415.135 124.575C414.851 123.985 414.721 123.383 414.721 122.741C414.721 122.1 414.864 121.484 415.135 120.907C415.406 120.33 415.781 119.817 416.26 119.381C416.738 118.957 417.294 118.624 417.927 118.367C418.56 118.111 419.232 117.982 419.956 117.982C420.68 117.982 421.352 118.111 421.985 118.367C422.619 118.624 423.174 118.957 423.653 119.381C424.118 119.817 424.493 120.317 424.777 120.907C425.048 121.484 425.191 122.1 425.191 122.741ZM422.748 122.741C422.748 122.023 422.476 121.407 421.921 120.894C421.378 120.381 420.719 120.124 419.943 120.124C419.168 120.124 418.521 120.381 417.966 120.894C417.41 121.407 417.138 122.023 417.138 122.741C417.138 123.459 417.41 124.075 417.966 124.588C418.521 125.101 419.181 125.358 419.943 125.358C420.706 125.358 421.365 125.101 421.921 124.588C422.476 124.075 422.748 123.459 422.748 122.741ZM425.191 106.9V111.3H427.905V113.544H425.191V118.188H422.748V106.913H425.191V106.9Z" fill="white"/>
<path d="M440.791 109.683C440.791 111.569 441.062 112.993 441.605 113.968C442.42 115.391 443.363 116.597 444.436 117.572L442.872 119.009C441.683 117.982 440.636 116.712 439.757 115.199C439.692 115.109 439.641 115.019 439.602 114.93L439.382 115.327C438.413 117.008 437.301 118.367 436.035 119.432L434.251 117.957C435.531 116.956 436.603 115.674 437.456 114.096C438.103 112.916 438.426 111.441 438.426 109.658V107.413H440.804V109.683H440.791ZM452.217 126.487H439.02V120.253H441.411V124.357H452.217V126.487ZM447.796 121.24H445.444V113.326H442.613V111.107H445.444V106.913H447.796V121.24ZM449.528 106.9H451.919V121.228H449.528V106.9Z" fill="white"/>
<path d="M461.38 121.869V107.644H469.833V109.799H463.797V113.596H469.316V115.699H463.797V119.765H466.421C468.295 119.765 470.247 119.624 472.302 119.342V121.446C470.389 121.728 468.412 121.869 466.382 121.869H461.393H461.38ZM474.15 106.9H476.593V126.474H474.15V115.622H471.074V113.429H474.15V106.9Z" fill="white"/>
<path d="M368.799 75.3326H265.103V77.0001H368.799V75.3326Z" fill="white"/>
</g>
<defs>
<clipPath id="clip0_1_2">
<rect width="600" height="127" fill="white" transform="translate(0 0.5)"/>
</clipPath>
</defs>
</svg>
