<svg width="151" height="32" viewBox="0 0 151 32" fill="none" xmlns="http://www.w3.org/2000/svg">
<g clip-path="url(#clip0_83_3059)">
<path d="M54.3557 6.12776V16.1211V21.2244H54.7242L59.8275 16.1243V16.1211V5.10645L54.3557 6.12776Z" fill="#48BFDD"/>
<path d="M59.8275 5.10645L54.3557 6.12776V5.10645H59.8275Z" fill="#1F8CA9"/>
<path d="M54.3558 16.1211V21.2244L53.3313 16.1211H54.3558Z" fill="#1F8CA9"/>
<path d="M54.7243 0H45.1672L46.195 5.10655H54.3558H59.8276V5.10009L54.7243 0Z" fill="#19A3BD"/>
<path d="M45.1672 0L46.195 5.10655H45.1672V0Z" fill="#1F8CA9"/>
<path d="M53.3313 16.1211H45.1673H39.6987V16.1243L44.7988 21.2244H54.3558L53.3313 16.1211Z" fill="#19A3BD"/>
<path d="M45.1673 15.0967V16.1212H39.6987L45.1673 15.0967Z" fill="#1F8CA9"/>
<path d="M44.7988 0L39.6987 5.10009V5.10655V16.1212L45.1673 15.0967V5.10655V0H44.7988Z" fill="#48BFDD"/>
<path d="M25.8818 16.1211L26.8902 21.2244H38.8357V16.1211H25.8818Z" fill="#19A3BD"/>
<path d="M34.5143 8.32568V13.429H26.89L25.8655 8.32568H34.5143Z" fill="#19A3BD"/>
<path d="M34.5145 0V5.10655H26.8902L25.8818 0H34.5145Z" fill="#19A3BD"/>
<path d="M25.8816 0L26.89 5.10655H25.8655V0H25.8816Z" fill="#1F8CA9"/>
<path d="M25.8655 8.32568L26.89 13.429H25.8655V8.32568Z" fill="#1F8CA9"/>
<path d="M25.8816 16.1211L26.89 21.2244H25.8655V16.1211H25.8816Z" fill="#1F8CA9"/>
<path d="M34.5144 0V5.10655V8.32562V13.4289L38.8356 9.10777V4.25331L34.5144 0Z" fill="#48BFDD"/>
<path d="M20.3938 16.648L25.8656 21.2245V16.1212V16.0501V13.4289V8.32562V5.10655V0L20.3938 4.57974V16.648Z" fill="#48BFDD"/>
<path d="M18.9331 0V21.2245H13.4646V11.3508V0H18.9331Z" fill="#48BFDD"/>
<path d="M13.4645 11.3509V21.2246L12.6145 10.1421L13.4645 11.3509Z" fill="#1F8CA9"/>
<path d="M12.6144 10.142L13.4645 21.2245L6.31852 11.0857L5.46851 0L12.6144 10.142Z" fill="#19A3BD"/>
<path d="M5.46851 0L6.31852 11.0857L5.46851 9.87698V0Z" fill="#1F8CA9"/>
<path d="M5.46854 9.87698V21.2245H0V0H5.46854V9.87698Z" fill="#48BFDD"/>
<path d="M66.0006 2.23013H68.4925V9.45041C68.4925 9.62171 68.6056 9.73483 68.7769 9.73483H72.1026V11.0082H67.3871C66.6923 11.0082 66.2689 10.5848 66.2689 9.87704V3.08015C66.2689 2.51455 65.8584 2.65676 65.8584 2.37234C65.8584 2.28831 65.9166 2.23013 66.0006 2.23013ZM72.6553 1.23791C72.6553 1.15388 72.7135 1.0957 72.7975 1.0957H75.1633V14.1206H73.0819V6.90037H70.5771V5.62696H73.0819V1.94572C73.0819 1.38012 72.6585 1.52233 72.6585 1.23791H72.6553ZM75.7128 1.0957H78.0624V14.1206H75.981V1.94572C75.981 1.38012 75.5705 1.52233 75.5705 1.23791C75.5705 1.15388 75.6287 1.0957 75.7128 1.0957Z" fill="#444444"/>
<path d="M79.7333 11.1502H84.801V8.95569C82.3932 8.64542 80.8354 7.36878 80.8354 5.34555C80.8354 3.00882 82.9168 1.66431 85.9743 1.66431C89.0317 1.66431 91.1131 3.00882 91.1131 5.34555C91.1131 7.36878 89.5553 8.64542 87.1475 8.95569V11.1502H92.2152V12.4236H79.7268V11.1502H79.7333ZM88.7538 5.34555C88.7538 4.00104 87.7777 2.93771 85.9775 2.93771C84.1773 2.93771 83.2012 4.00104 83.2012 5.34555C83.2012 6.69006 84.1773 7.75339 85.9775 7.75339C87.7777 7.75339 88.7538 6.69006 88.7538 5.34555Z" fill="#444444"/>
<path d="M97.4188 2.08776C97.4188 2.00373 97.4737 1.94556 97.5449 1.94556H100.192V6.90021C100.192 7.0715 100.292 7.18462 100.46 7.18462H107.538V8.45803H103.857V11.3604H108.925V12.6338H96.4363V11.3604H101.504V8.45803H98.9281C98.2333 8.45803 97.8228 8.03464 97.8228 7.32683V2.79557C97.8228 2.22997 97.4123 2.37218 97.4123 2.08776H97.4188Z" fill="#444444"/>
<path d="M122.806 8.74244V10.0158H117.738V14.4049H115.389V10.0158H110.321V8.74244H122.809H122.806ZM111.423 1.66436H120.867C121.206 1.66436 121.42 1.87768 121.42 2.22996V6.05342C121.42 6.76122 121.009 7.18462 120.314 7.18462H112.81C112.115 7.18462 111.704 6.76122 111.704 6.05342V2.51115C111.704 1.94555 111.294 2.08776 111.294 1.80334C111.294 1.71931 111.349 1.66113 111.42 1.66113L111.423 1.66436ZM114.342 5.91121H118.789C118.96 5.91121 119.057 5.79809 119.057 5.62679V2.93777H114.073V5.62679C114.073 5.79809 114.174 5.91121 114.342 5.91121Z" fill="#444444"/>
<path d="M124.338 1.73222C124.338 1.64819 124.396 1.59001 124.48 1.59001H127.114V3.50012H129.054V2.4368C129.054 1.8712 128.643 2.0134 128.643 1.72899C128.643 1.64496 128.701 1.58678 128.769 1.58678H131.416V3.99462H133.355V1.9423C133.355 1.3767 132.932 1.51891 132.932 1.23449C132.932 1.15046 132.987 1.09229 133.074 1.09229H135.708V8.24146H133.359V5.26802H131.419V6.68364C131.419 7.39145 130.996 7.81484 130.301 7.81484H125.87C125.175 7.81484 124.752 7.39145 124.752 6.68364V2.44003C124.752 1.87443 124.341 2.01664 124.341 1.73222H124.338ZM125.993 9.09471H128.64V10.5103H133.355V9.94472C133.355 9.37912 132.932 9.52133 132.932 9.23692C132.932 9.15288 132.987 9.09471 133.074 9.09471H135.708V13.2704C135.708 13.9783 135.298 14.4016 134.603 14.4016H127.383C126.688 14.4016 126.277 13.9783 126.277 13.2704V9.94472C126.277 9.37912 125.867 9.52133 125.867 9.23692C125.867 9.15288 125.925 9.09471 125.993 9.09471ZM127.383 6.5479H128.769C128.941 6.5479 129.054 6.43477 129.054 6.26348V4.77676H127.114V6.26348C127.114 6.43477 127.228 6.5479 127.383 6.5479ZM128.911 13.1315H133.074C133.246 13.1315 133.359 13.0184 133.359 12.8471V11.7837H128.643V12.8471C128.643 13.0184 128.743 13.1315 128.911 13.1315Z" fill="#444444"/>
<path d="M141.953 1.52208C144.176 1.52208 145.705 2.9377 145.705 5.13222C145.705 7.32675 144.176 8.74236 141.953 8.74236C139.729 8.74236 138.213 7.32675 138.213 5.13222C138.213 2.9377 139.742 1.52208 141.953 1.52208ZM139.871 9.73459H142.518V12.8502C142.518 13.0215 142.618 13.1346 142.786 13.1346H149.864V14.4081H141.258C140.563 14.4081 140.152 13.9847 140.152 13.2769V10.5878C140.152 10.0222 139.742 10.1644 139.742 9.88003C139.742 9.79599 139.8 9.73782 139.868 9.73782L139.871 9.73459ZM141.953 7.46896C142.786 7.46896 143.313 6.47673 143.313 5.13222C143.313 3.78771 142.79 2.79549 141.953 2.79549C141.115 2.79549 140.592 3.78771 140.592 5.13222C140.592 6.47673 141.128 7.46896 141.953 7.46896ZM146.81 1.23767C146.81 1.15363 146.865 1.09546 146.952 1.09546H149.587V11.147H147.237V1.94547C147.237 1.37987 146.813 1.52208 146.813 1.23767H146.81Z" fill="#444444"/>
<path d="M94.4648 16.8386H95.247V19.8121H97.0472L96.9567 20.452H94.4648V16.8386Z" fill="#444444"/>
<path d="M99.7524 19.7507C99.7524 20.0093 99.7718 20.3874 99.788 20.4521H99.0705C99.0479 20.3971 99.0349 20.2549 99.0317 20.1871C98.9347 20.339 98.7505 20.5135 98.2689 20.5135C97.6161 20.5135 97.3381 20.0836 97.3381 19.6635C97.3381 19.0462 97.8359 18.7585 98.6309 18.7585H99.0188V18.5937C99.0188 18.3998 98.9509 18.2123 98.6018 18.2123C98.2851 18.2123 98.214 18.3481 98.1817 18.5452H97.4674C97.5094 18.0636 97.8068 17.6726 98.6309 17.6758C99.3581 17.679 99.7524 17.9634 99.7524 18.6098V19.7507ZM99.0188 19.2175H98.7117C98.2593 19.2175 98.0912 19.3564 98.0912 19.6182C98.0912 19.8154 98.2108 19.9802 98.4823 19.9802C98.9606 19.9802 99.0188 19.6473 99.0188 19.2886V19.2175Z" fill="#444444"/>
<path d="M100.431 16.6253H101.181V18.028C101.294 17.8535 101.517 17.6757 101.957 17.6757C102.697 17.6757 103.065 18.2865 103.065 19.0461C103.065 19.8056 102.664 20.5134 101.885 20.5134C101.481 20.5134 101.304 20.3906 101.171 20.1934C101.171 20.2839 101.158 20.3809 101.142 20.452H100.425C100.431 20.1579 100.431 19.8605 100.431 19.5632V16.6221V16.6253ZM102.306 19.0622C102.306 18.6097 102.138 18.2769 101.73 18.2769C101.3 18.2769 101.149 18.5548 101.149 19.1107C101.149 19.5664 101.284 19.9187 101.721 19.9187C102.102 19.9187 102.302 19.5761 102.302 19.0622H102.306Z" fill="#444444"/>
<path d="M106.139 19.0913C106.139 19.9123 105.648 20.5166 104.788 20.5166C103.928 20.5166 103.456 19.9155 103.456 19.1075C103.456 18.2995 103.964 17.679 104.823 17.679C105.622 17.679 106.139 18.2413 106.139 19.0946V19.0913ZM104.219 19.0946C104.219 19.6182 104.445 19.9252 104.807 19.9252C105.169 19.9252 105.379 19.6149 105.379 19.0978C105.379 18.529 105.172 18.2607 104.798 18.2607C104.449 18.2607 104.222 18.5193 104.222 19.0913L104.219 19.0946Z" fill="#444444"/>
<path d="M106.656 18.4739C106.656 18.2056 106.656 17.9632 106.649 17.737H107.386C107.396 17.7984 107.406 18.0667 107.406 18.2121C107.525 17.9018 107.816 17.6756 108.275 17.6724V18.3899C107.729 18.3769 107.406 18.5224 107.406 19.2657V20.4486H106.656V18.4707V18.4739Z" fill="#444444"/>
<path d="M110.085 16.8386H110.867V19.8121H112.667L112.577 20.452H110.085V16.8386Z" fill="#444444"/>
<path d="M115.373 19.7507C115.373 20.0093 115.392 20.3874 115.408 20.4521H114.691C114.668 20.3971 114.655 20.2549 114.652 20.1871C114.555 20.339 114.371 20.5135 113.889 20.5135C113.236 20.5135 112.958 20.0836 112.958 19.6635C112.958 19.0462 113.456 18.7585 114.251 18.7585H114.639V18.5937C114.639 18.3998 114.571 18.2123 114.222 18.2123C113.905 18.2123 113.834 18.3481 113.802 18.5452H113.088C113.13 18.0636 113.427 17.6726 114.251 17.6758C114.978 17.679 115.373 17.9634 115.373 18.6098V19.7507ZM114.639 19.2175H114.332C113.879 19.2175 113.711 19.3564 113.711 19.6182C113.711 19.8154 113.831 19.9802 114.102 19.9802C114.581 19.9802 114.639 19.6473 114.639 19.2886V19.2175Z" fill="#444444"/>
<path d="M116.497 17.7371C116.743 18.8262 116.876 19.4468 116.927 19.7829H116.937C116.992 19.4823 117.069 19.0557 117.402 17.7371H118.1C118.408 19.0719 118.498 19.4629 118.537 19.7571H118.543C118.598 19.4791 118.682 19.0719 118.999 17.7371H119.742L118.938 20.4519H118.133C117.91 19.4209 117.781 18.8812 117.719 18.5224H117.713C117.671 18.8618 117.522 19.4791 117.283 20.4519H116.475L115.706 17.7371H116.501H116.497Z" fill="#444444"/>
<path d="M124.597 19.3369C124.451 20.0124 123.944 20.5037 123.039 20.5037C121.892 20.5037 121.352 19.6924 121.352 18.6647C121.352 17.6369 121.911 16.7869 123.078 16.7869C124.041 16.7869 124.506 17.3525 124.593 17.9568H123.811C123.737 17.6789 123.543 17.4009 123.052 17.4009C122.409 17.4009 122.16 17.9795 122.16 18.6388C122.16 19.2496 122.376 19.8928 123.074 19.8928C123.585 19.8928 123.747 19.5502 123.815 19.3401H124.6L124.597 19.3369Z" fill="#444444"/>
<path d="M127.667 19.0913C127.667 19.9123 127.176 20.5166 126.316 20.5166C125.456 20.5166 124.985 19.9155 124.985 19.1075C124.985 18.2995 125.492 17.679 126.352 17.679C127.15 17.679 127.667 18.2413 127.667 19.0946V19.0913ZM125.747 19.0946C125.747 19.6182 125.974 19.9252 126.336 19.9252C126.698 19.9252 126.908 19.6149 126.908 19.0978C126.908 18.529 126.701 18.2607 126.326 18.2607C125.977 18.2607 125.751 18.5193 125.751 19.0913L125.747 19.0946Z" fill="#444444"/>
<path d="M128.184 18.4739C128.184 18.2056 128.184 17.9632 128.178 17.737H128.915C128.924 17.7984 128.934 18.0667 128.934 18.2121C129.054 17.9018 129.344 17.6756 129.803 17.6724V18.3899C129.257 18.3769 128.934 18.5224 128.934 19.2657V20.4486H128.184V18.4707V18.4739Z" fill="#444444"/>
<path d="M130.954 20.2128V21.4927H130.207V18.3932C130.207 18.1735 130.207 17.9569 130.201 17.7404H130.928C130.938 17.8115 130.954 17.9795 130.954 18.0797C131.07 17.8793 131.313 17.679 131.743 17.679C132.353 17.679 132.822 18.1896 132.822 19.0299C132.822 19.9866 132.295 20.5166 131.639 20.5166C131.258 20.5166 131.057 20.3712 130.954 20.2128ZM132.063 19.0558C132.063 18.5581 131.862 18.2769 131.503 18.2769C131.077 18.2769 130.925 18.5516 130.925 19.0978C130.925 19.6149 131.064 19.9187 131.471 19.9187C131.878 19.9187 132.063 19.6085 132.063 19.0558Z" fill="#444444"/>
<path d="M135.899 19.0913C135.899 19.9123 135.408 20.5166 134.548 20.5166C133.688 20.5166 133.217 19.9155 133.217 19.1075C133.217 18.2995 133.724 17.679 134.584 17.679C135.382 17.679 135.899 18.2413 135.899 19.0946V19.0913ZM133.979 19.0946C133.979 19.6182 134.206 19.9252 134.568 19.9252C134.93 19.9252 135.14 19.6149 135.14 19.0978C135.14 18.529 134.933 18.2607 134.558 18.2607C134.209 18.2607 133.983 18.5193 133.983 19.0913L133.979 19.0946Z" fill="#444444"/>
<path d="M136.416 18.4739C136.416 18.2056 136.416 17.9632 136.41 17.737H137.147C137.156 17.7984 137.166 18.0667 137.166 18.2121C137.286 17.9018 137.576 17.6756 138.035 17.6724V18.3899C137.489 18.3769 137.166 18.5224 137.166 19.2657V20.4486H136.416V18.4707V18.4739Z" fill="#444444"/>
<path d="M140.644 19.7507C140.644 20.0093 140.663 20.3874 140.679 20.4521H139.962C139.939 20.3971 139.926 20.2549 139.923 20.1871C139.826 20.339 139.642 20.5135 139.16 20.5135C138.507 20.5135 138.229 20.0836 138.229 19.6635C138.229 19.0462 138.727 18.7585 139.522 18.7585H139.91V18.5937C139.91 18.3998 139.842 18.2123 139.493 18.2123C139.176 18.2123 139.105 18.3481 139.073 18.5452H138.359C138.401 18.0636 138.698 17.6726 139.522 17.6758C140.249 17.679 140.644 17.9634 140.644 18.6098V19.7507ZM139.91 19.2175H139.603C139.15 19.2175 138.982 19.3564 138.982 19.6182C138.982 19.8154 139.102 19.9802 139.373 19.9802C139.852 19.9802 139.91 19.6473 139.91 19.2886V19.2175Z" fill="#444444"/>
<path d="M141.006 17.7371H141.423V17.0034H142.176V17.7371H142.706V18.3027H142.176V19.6407C142.176 19.8476 142.237 19.9251 142.463 19.9251C142.505 19.9251 142.58 19.9251 142.635 19.9154V20.4326C142.486 20.4843 142.282 20.4843 142.13 20.4843C141.6 20.4843 141.426 20.1999 141.426 19.7248V18.2962H141.009V17.7306L141.006 17.7371Z" fill="#444444"/>
<path d="M143.126 16.6252H143.876V17.2943H143.126V16.6252ZM143.126 17.7371H143.876V20.4519H143.126V17.7371Z" fill="#444444"/>
<path d="M147.079 19.0913C147.079 19.9123 146.587 20.5166 145.728 20.5166C144.868 20.5166 144.396 19.9155 144.396 19.1075C144.396 18.2995 144.903 17.679 145.763 17.679C146.561 17.679 147.079 18.2413 147.079 19.0946V19.0913ZM145.156 19.0946C145.156 19.6182 145.382 19.9252 145.744 19.9252C146.106 19.9252 146.316 19.6149 146.316 19.0978C146.316 18.529 146.109 18.2607 145.734 18.2607C145.385 18.2607 145.159 18.5193 145.159 19.0913L145.156 19.0946Z" fill="#444444"/>
<path d="M147.599 18.4224C147.599 18.1929 147.599 17.9376 147.592 17.7372H148.319C148.336 17.8083 148.345 17.9957 148.349 18.083C148.442 17.9117 148.659 17.6758 149.137 17.6758C149.683 17.6758 150.036 18.0442 150.036 18.7262V20.4521H149.286V18.8102C149.286 18.5064 149.186 18.2834 148.853 18.2834C148.52 18.2834 148.352 18.4612 148.352 18.9395V20.4521H147.602V18.4224H147.599Z" fill="#444444"/>
<path d="M33.6547 29.088C33.7484 28.6388 33.7969 28.2024 33.7969 27.7758V27.4817H31.0723V26.9387H34.4077V27.7079C34.4077 28.1443 34.356 28.6032 34.2558 29.088H34.9636V29.6374H30.5681V29.088H33.6579H33.6547ZM34.5015 31.7447H31.1337V30.1384H31.7543V31.2017H34.5015V31.7447Z" fill="#444444"/>
<path d="M41.2434 29.3078H36.8479V28.7875H38.4025V27.9213H39.0133V28.7875H41.2466V29.3078H41.2434ZM40.5647 28.516H39.9668C40.0411 28.2057 40.0799 27.8728 40.0799 27.5173V27.443H37.3553V26.9226H40.6907V27.4591C40.6907 27.847 40.6487 28.1992 40.5679 28.516H40.5647ZM40.7586 31.7447H37.3909V30.4519H40.0928V30.1255H37.3909V29.6439H40.7037V30.9271H38.0017V31.2599H40.7586V31.7447Z" fill="#444444"/>
<path d="M45.6907 27.0099C45.6907 27.1747 45.681 27.3331 45.6584 27.485H46.5892V26.8127H47.2V29.6666H46.5892V29.1236H45.458V28.5936H46.5892V28.0183H45.5161C45.3966 28.335 45.2123 28.613 44.9667 28.8489C44.5369 29.2626 44.0327 29.547 43.4509 29.7021L43.1406 29.2723C43.6868 29.0945 44.1232 28.8586 44.4464 28.5613C44.7825 28.251 44.9699 27.9181 45.012 27.5561H43.48V27.0131H45.6907V27.0099ZM46.5892 31.8062V30.536H44.0294V29.9866H47.2V31.8062H46.5892Z" fill="#444444"/>
<path d="M51.5275 27.0326C51.5275 27.2685 51.5146 27.4948 51.4887 27.7113H52.0543V26.8128H52.6264V31.7448H52.0543V29.6376H51.3465V29.0784H52.0543V28.2704H51.3918C51.3045 28.6356 51.1752 28.9653 51.0072 29.2594C50.6484 29.8735 50.2315 30.3648 49.7596 30.7332L49.3071 30.3421C49.7628 29.9996 50.1539 29.5503 50.4836 28.9912C50.726 28.5807 50.8553 28.1121 50.8746 27.5853H49.5819V27.0326H51.5307H51.5275ZM53.0433 26.8096H53.6315V31.7416H53.0433V26.8096Z" fill="#444444"/>
<path d="M61.4143 29.2077H59.0679V26.9938H61.4143V29.2077ZM62.9624 30.494H61.5662C61.6082 30.6815 61.7763 30.8593 62.0704 31.0241C62.3484 31.1792 62.7265 31.2988 63.2016 31.3861L62.8784 31.8224C62.3613 31.7448 61.9217 31.5832 61.5565 31.3408C61.4272 31.2568 61.3206 31.1728 61.2333 31.0823C61.1428 31.1728 61.0329 31.26 60.9069 31.3408C60.5417 31.5832 60.1021 31.7416 59.585 31.8224L59.2618 31.3861C59.7369 31.2988 60.1118 31.1792 60.393 31.0241C60.6871 30.8593 60.8552 30.6815 60.8972 30.494H59.501V29.9737H60.9036V29.5051H61.5662V29.9737H62.9689V30.494H62.9624ZM60.8067 27.5012H59.6723V28.7003H60.8067V27.5012ZM62.8041 26.8096V29.4986H62.1932V26.8096H62.8041Z" fill="#444444"/>
<path d="M68.3533 29.5729V26.9906H68.9641V29.0235H69.756C70.3022 29.0235 70.8031 28.9847 71.2588 28.9104V26.8096H71.8697V28.1088H72.5484V28.6744H71.8697V30.4197H71.2588V29.4598C70.7999 29.5341 70.2828 29.5729 69.7107 29.5729H68.3533ZM72.0087 31.7448H68.809V30.1612H69.4295V31.1954H72.0054V31.7448H72.0087Z" fill="#444444"/>
<path d="M76.123 27.8114V27.9569C76.123 28.1799 76.2297 28.3964 76.4462 28.613C76.6337 28.8004 76.9051 28.9814 77.2607 29.1559L76.9375 29.5955C76.5561 29.4274 76.2264 29.2012 75.9485 28.9232C75.9032 28.878 75.8644 28.8327 75.8289 28.7875C75.7836 28.8521 75.7352 28.9168 75.6802 28.9782C75.3926 29.324 75.0823 29.589 74.7429 29.7765L74.3486 29.3531C74.6815 29.1786 74.9562 28.962 75.1728 28.697C75.3926 28.432 75.4992 28.1863 75.4992 27.9569V27.8114H74.4197V27.2749H75.4992V26.7319H76.1198V27.2749H77.1702V27.8114H76.1198H76.123ZM78.3369 30.8172C78.3369 30.9788 78.3014 31.1307 78.2335 31.2761C78.1656 31.4216 78.0719 31.5444 77.9555 31.6478C77.8392 31.7577 77.7034 31.8417 77.5451 31.9064C77.3899 31.9678 77.2219 32.0001 77.0441 32.0001C76.8664 32.0001 76.7015 31.9678 76.5432 31.9064C76.388 31.845 76.249 31.7577 76.1327 31.6478C76.0163 31.5411 75.9226 31.4183 75.8547 31.2761C75.7869 31.1339 75.7546 30.9788 75.7546 30.8172C75.7546 30.6556 75.7869 30.5037 75.8547 30.3582C75.9226 30.216 76.0163 30.09 76.1327 29.9866C76.249 29.8767 76.3848 29.7926 76.5432 29.728C76.6983 29.6666 76.8664 29.6343 77.0441 29.6343C77.2219 29.6343 77.3867 29.6666 77.5451 29.728C77.7002 29.7894 77.8392 29.8767 77.9555 29.9866C78.0719 30.0932 78.1656 30.216 78.2335 30.3582C78.3014 30.5004 78.3369 30.6556 78.3369 30.8172ZM77.7293 30.8172C77.7293 30.6394 77.6614 30.4875 77.5289 30.3615C77.3964 30.2354 77.2348 30.1708 77.0506 30.1708C76.8664 30.1708 76.708 30.2354 76.5722 30.3615C76.4397 30.4875 76.3719 30.6394 76.3719 30.8172C76.3719 30.9949 76.4397 31.1468 76.5722 31.2729C76.7048 31.3989 76.8664 31.4636 77.0506 31.4636C77.2348 31.4636 77.3932 31.4022 77.5289 31.2729C77.6647 31.1436 77.7293 30.9949 77.7293 30.8172ZM78.4048 26.8095V29.7021H77.7939V28.6679H76.9569V28.1314H77.7939V26.8095H78.4048Z" fill="#444444"/>
<path d="M85.3408 27.4107C85.3408 27.9084 85.4475 28.3028 85.6575 28.5969C85.9032 28.933 86.2005 29.2142 86.5496 29.4372L86.1811 29.8509C85.8127 29.6214 85.4733 29.3047 85.163 28.9007C85.1146 28.836 85.0693 28.7682 85.0273 28.6971C84.982 28.7779 84.9336 28.8522 84.8819 28.9298C84.5878 29.3532 84.2516 29.6828 83.8767 29.9188L83.4695 29.518C83.8347 29.295 84.145 29.0009 84.3971 28.6292C84.6104 28.3157 84.7203 27.9085 84.7203 27.4075V26.9389H85.3408V27.4075V27.4107ZM87.6129 31.7448H84.4132V30.1612H85.0338V31.1954H87.6097V31.7448H87.6129ZM87.4707 26.8096V28.1088H88.1494V28.6744H87.4707V30.4197H86.8598V26.8096H87.4707Z" fill="#444444"/>
<path d="M90.8287 28.1379V27.5723H89.9819V27.0293H92.157V27.5723H91.4234V28.1379C91.4234 28.655 91.5106 29.0687 91.6884 29.3822C91.8758 29.7183 92.115 29.993 92.3994 30.2128L92.0374 30.5909C91.6755 30.3162 91.3878 29.9769 91.1713 29.5729C91.1551 29.547 91.1422 29.5212 91.1325 29.4921L91.0775 29.5923C90.7931 30.0932 90.5055 30.4487 90.2114 30.6556L89.7944 30.2936C90.0982 30.0577 90.3568 29.7442 90.5637 29.3596C90.7414 29.0267 90.8287 28.6194 90.8287 28.1346V28.1379ZM93.5791 28.9685H93.1169V31.7448H92.5287V26.8127H93.1169V28.419H93.5791V26.8127H94.177V31.7448H93.5791V28.9685Z" fill="#444444"/>
<path d="M100.079 29.7377H98.7276V30.675H100.622V31.2277H96.2261V30.675H98.12V29.7377H96.769V26.9744H97.3799V27.7759H99.471V26.9744H100.082V29.7377H100.079ZM99.4678 29.1915V28.3318H97.3767V29.1915H99.4678Z" fill="#444444"/>
<path d="M104.193 27.3719C104.193 27.7662 104.3 28.0959 104.51 28.3545C104.72 28.6098 105.004 28.8393 105.357 29.0396L105.008 29.476C104.626 29.2788 104.293 29.0106 104.009 28.668C103.973 28.626 103.944 28.5839 103.912 28.5452C103.87 28.6227 103.821 28.7003 103.766 28.7714C103.476 29.156 103.143 29.4533 102.768 29.6634L102.377 29.2497C102.739 29.0526 103.039 28.794 103.275 28.4708C103.476 28.1993 103.576 27.8341 103.576 27.3752V26.9453H104.196V27.3752L104.193 27.3719ZM106.323 30.8011C106.323 30.9627 106.287 31.1178 106.22 31.2633C106.148 31.4087 106.058 31.538 105.938 31.6479C105.819 31.7545 105.68 31.8386 105.521 31.9032C105.363 31.9678 105.195 32.0002 105.014 32.0002C104.833 32.0002 104.665 31.9678 104.507 31.9032C104.348 31.8386 104.209 31.7545 104.09 31.6479C103.973 31.538 103.88 31.4119 103.808 31.2633C103.737 31.1146 103.705 30.9627 103.705 30.8011C103.705 30.6395 103.741 30.4844 103.808 30.3389C103.876 30.1935 103.97 30.0642 104.09 29.9543C104.209 29.8476 104.348 29.7636 104.507 29.699C104.665 29.6343 104.833 29.602 105.014 29.602C105.195 29.602 105.363 29.6343 105.521 29.699C105.68 29.7636 105.819 29.8476 105.938 29.9543C106.055 30.0642 106.148 30.1902 106.22 30.3389C106.287 30.4844 106.323 30.6395 106.323 30.8011ZM105.712 30.8011C105.712 30.6201 105.644 30.465 105.505 30.3357C105.37 30.2064 105.205 30.1418 105.011 30.1418C104.817 30.1418 104.655 30.2064 104.516 30.3357C104.377 30.465 104.309 30.6201 104.309 30.8011C104.309 30.9821 104.377 31.1372 104.516 31.2665C104.655 31.3958 104.82 31.4604 105.011 31.4604C105.201 31.4604 105.366 31.3958 105.505 31.2665C105.644 31.1372 105.712 30.9821 105.712 30.8011ZM106.323 26.8096V27.9181H107.002V28.4837H106.323V29.6537H105.712V26.8128H106.323V26.8096Z" fill="#444444"/>
<path d="M110.224 27.5109C110.224 27.986 110.292 28.3448 110.428 28.5904C110.631 28.9492 110.867 29.253 111.135 29.4986L110.744 29.8606C110.447 29.602 110.185 29.282 109.965 28.9007C109.949 28.878 109.936 28.8554 109.927 28.8328L109.872 28.933C109.629 29.3564 109.351 29.699 109.035 29.9672L108.589 29.5956C108.909 29.3435 109.177 29.0203 109.39 28.6227C109.552 28.3254 109.633 27.9537 109.633 27.5045V26.9389H110.227V27.5109H110.224ZM113.081 31.7448H109.781V30.1741H110.379V31.2083H113.081V31.7448ZM111.976 30.4229H111.388V28.4288H110.68V27.8697H111.388V26.8128H111.976V30.4229ZM112.409 26.8096H113.007V30.4197H112.409V26.8096Z" fill="#444444"/>
<path d="M115.373 30.5813V26.997H117.486V27.54H115.977V28.4967H117.357V29.0267H115.977V30.0513H116.633C117.102 30.0513 117.59 30.0157 118.104 29.9446V30.4747C117.625 30.5458 117.131 30.5813 116.623 30.5813H115.376H115.373ZM118.566 26.8096H119.177V31.7416H118.566V29.0073H117.797V28.4547H118.566V26.8096Z" fill="#444444"/>
<path d="M92.2218 18.8555H66.2915V19.2756H92.2218V18.8555Z" fill="#444444"/>
</g>
<defs>
<clipPath id="clip0_83_3059">
<rect width="150.036" height="32" fill="white"/>
</clipPath>
</defs>
</svg>
