<svg width="134" height="29" viewBox="0 0 134 29" fill="none" xmlns="http://www.w3.org/2000/svg">
<g clip-path="url(#clip0_98_11217)">
<path d="M48.6372 6.01887V14.8989V19.4338H48.9646L53.4994 14.9018V14.8989V5.11133L48.6372 6.01887Z" fill="#48BFDD"/>
<path d="M53.4994 5.11133L48.6372 6.01887V5.11133H53.4994Z" fill="#1F8CA9"/>
<path d="M48.637 14.899V19.4338L47.7266 14.899H48.637Z" fill="#1F8CA9"/>
<path d="M48.9645 0.573669H40.4722L41.3854 5.11136H48.6371H53.4994V5.10561L48.9645 0.573669Z" fill="#19A3BD"/>
<path d="M40.4722 0.573669L41.3854 5.11136H40.4722V0.573669Z" fill="#1F8CA9"/>
<path d="M47.7267 14.899H40.4721H35.6128V14.9019L40.1447 19.4338H48.6371L47.7267 14.899Z" fill="#19A3BD"/>
<path d="M40.4721 13.9886V14.899H35.6128L40.4721 13.9886Z" fill="#1F8CA9"/>
<path d="M40.1447 0.573669L35.6128 5.10561V5.11136V14.899L40.4721 13.9886V5.11136V0.573669H40.1447Z" fill="#48BFDD"/>
<path d="M23.335 14.899L24.231 19.4338H34.8458V14.899H23.335Z" fill="#19A3BD"/>
<path d="M31.0061 7.9718V12.5066H24.2312L23.3208 7.9718H31.0061Z" fill="#19A3BD"/>
<path d="M31.0059 0.573669V5.11136H24.231L23.335 0.573669H31.0059Z" fill="#19A3BD"/>
<path d="M23.3352 0.573669L24.2312 5.11136H23.3208V0.573669H23.3352Z" fill="#1F8CA9"/>
<path d="M23.3208 7.9718L24.2312 12.5066H23.3208V7.9718Z" fill="#1F8CA9"/>
<path d="M23.3352 14.899L24.2312 19.4338H23.3208V14.899H23.3352Z" fill="#1F8CA9"/>
<path d="M31.0059 0.573669V5.11136V7.97182V12.5066L34.8457 8.66684V4.35316L31.0059 0.573669Z" fill="#48BFDD"/>
<path d="M18.4585 15.3671L23.3207 19.4338V14.899V14.8358V12.5066V7.97182V5.11136V0.573669L18.4585 4.64323V15.3671Z" fill="#48BFDD"/>
<path d="M17.1601 0.573669V19.4338H12.3008V10.66V0.573669H17.1601Z" fill="#48BFDD"/>
<path d="M12.3012 10.66V19.4338L11.5459 9.58588L12.3012 10.66Z" fill="#1F8CA9"/>
<path d="M11.5457 9.58586L12.301 19.4338L5.95112 10.4245L5.1958 0.573669L11.5457 9.58586Z" fill="#19A3BD"/>
<path d="M5.1958 0.573669L5.95112 10.4245L5.1958 9.35036V0.573669Z" fill="#1F8CA9"/>
<path d="M5.19577 9.35036V19.4338H0.336426V0.573669H5.19577V9.35036Z" fill="#48BFDD"/>
<path d="M58.9848 2.55505H61.199V8.971C61.199 9.12321 61.2996 9.22373 61.4518 9.22373H64.407V10.3553H60.2168C59.5994 10.3553 59.2231 9.97905 59.2231 9.35009V3.31038C59.2231 2.80778 58.8584 2.93415 58.8584 2.68142C58.8584 2.60675 58.9101 2.55505 58.9848 2.55505ZM64.8981 1.67336C64.8981 1.59869 64.9498 1.547 65.0245 1.547H67.1268V13.121H65.2772V6.70503H63.0514V5.57348H65.2772V2.30232C65.2772 1.79973 64.901 1.92609 64.901 1.67336H64.8981ZM67.615 1.547H69.7029V13.121H67.8534V2.30232C67.8534 1.79973 67.4886 1.92609 67.4886 1.67336C67.4886 1.59869 67.5403 1.547 67.615 1.547Z" fill="#444444"/>
<path d="M71.1879 10.4819H75.6911V8.53186C73.5515 8.25615 72.1672 7.12173 72.1672 5.32389C72.1672 3.24747 74.0168 2.05273 76.7336 2.05273C79.4505 2.05273 81.3 3.24747 81.3 5.32389C81.3 7.12173 79.9157 8.25615 77.7761 8.53186V10.4819H82.2794V11.6135H71.1821V10.4819H71.1879ZM79.2035 5.32389C79.2035 4.12916 78.3362 3.18428 76.7365 3.18428C75.1368 3.18428 74.2695 4.12916 74.2695 5.32389C74.2695 6.51862 75.1368 7.4635 76.7365 7.4635C78.3362 7.4635 79.2035 6.51862 79.2035 5.32389Z" fill="#444444"/>
<path d="M86.9029 2.42892C86.9029 2.35425 86.9517 2.30255 87.0149 2.30255H89.367V6.70526C89.367 6.85747 89.456 6.95799 89.6054 6.95799H95.8949V8.08954H92.6238V10.6686H97.127V11.8001H86.0298V10.6686H90.533V8.08954H88.2441C87.6266 8.08954 87.2619 7.71331 87.2619 7.08435V3.05788C87.2619 2.55528 86.8971 2.68165 86.8971 2.42892H86.9029Z" fill="#444444"/>
<path d="M109.462 8.34232V9.47387H104.959V13.374H102.871V9.47387H98.3677V8.34232H109.465H109.462ZM99.347 2.05274H107.739C108.04 2.05274 108.23 2.24229 108.23 2.55533V5.95285C108.23 6.58181 107.865 6.95804 107.248 6.95804H100.579C99.9616 6.95804 99.5969 6.58181 99.5969 5.95285V2.80519C99.5969 2.3026 99.2321 2.42896 99.2321 2.17623C99.2321 2.10156 99.281 2.04987 99.3441 2.04987L99.347 2.05274ZM101.94 5.82649H105.892C106.044 5.82649 106.131 5.72597 106.131 5.57375V3.18429H101.702V5.57375C101.702 5.72597 101.791 5.82649 101.94 5.82649Z" fill="#444444"/>
<path d="M110.824 2.11302C110.824 2.03835 110.875 1.98665 110.95 1.98665H113.291V3.68398H115.014V2.73911C115.014 2.23651 114.649 2.36288 114.649 2.11015C114.649 2.03548 114.701 1.98378 114.761 1.98378H117.113V4.12339H118.836V2.2997C118.836 1.7971 118.46 1.92347 118.46 1.67074C118.46 1.59607 118.509 1.54437 118.587 1.54437H120.927V7.89713H118.839V5.25494H117.116V6.51285C117.116 7.14181 116.74 7.51804 116.122 7.51804H112.185C111.568 7.51804 111.191 7.14181 111.191 6.51285V2.74198C111.191 2.23939 110.827 2.36575 110.827 2.11302H110.824ZM112.294 8.65533H114.646V9.91325H118.836V9.41065C118.836 8.90806 118.46 9.03443 118.46 8.7817C118.46 8.70703 118.509 8.65533 118.587 8.65533H120.927V12.3659C120.927 12.9949 120.563 13.3711 119.945 13.3711H113.529C112.912 13.3711 112.547 12.9949 112.547 12.3659V9.41065C112.547 8.90806 112.182 9.03443 112.182 8.7817C112.182 8.70703 112.234 8.65533 112.294 8.65533ZM113.529 6.39223H114.761C114.913 6.39223 115.014 6.29171 115.014 6.1395V4.8184H113.291V6.1395C113.291 6.29171 113.391 6.39223 113.529 6.39223ZM114.888 12.2424H118.587C118.739 12.2424 118.839 12.1419 118.839 11.9897V11.0448H114.649V11.9897C114.649 12.1419 114.738 12.2424 114.888 12.2424Z" fill="#444444"/>
<path d="M126.476 1.92634C128.452 1.92634 129.81 3.18426 129.81 5.13431C129.81 7.08437 128.452 8.34228 126.476 8.34228C124.5 8.34228 123.153 7.08437 123.153 5.13431C123.153 3.18426 124.511 1.92634 126.476 1.92634ZM124.626 9.22398H126.978V11.9925C126.978 12.1448 127.067 12.2453 127.217 12.2453H133.506V13.3768H125.858C125.241 13.3768 124.876 13.0006 124.876 12.3716V9.98217C124.876 9.47958 124.511 9.60594 124.511 9.35321C124.511 9.27854 124.563 9.22685 124.623 9.22685L124.626 9.22398ZM126.476 7.21074C127.217 7.21074 127.685 6.32904 127.685 5.13431C127.685 3.93958 127.22 3.05789 126.476 3.05789C125.732 3.05789 125.267 3.93958 125.267 5.13431C125.267 6.32904 125.743 7.21074 126.476 7.21074ZM130.792 1.67361C130.792 1.59894 130.841 1.54724 130.919 1.54724H133.259V10.479H131.171V2.30257C131.171 1.79997 130.795 1.92634 130.795 1.67361H130.792Z" fill="#444444"/>
<path d="M84.2778 15.5366H84.9728V18.1788H86.5725L86.4921 18.7474H84.2778V15.5366Z" fill="#444444"/>
<path d="M88.9764 18.1241C88.9764 18.3539 88.9936 18.6899 89.008 18.7474H88.3704C88.3503 18.6985 88.3388 18.5722 88.336 18.5119C88.2498 18.6468 88.0861 18.8019 87.6582 18.8019C87.078 18.8019 86.8311 18.42 86.8311 18.0466C86.8311 17.4981 87.2733 17.2425 87.9798 17.2425H88.3245V17.096C88.3245 16.9237 88.2642 16.7571 87.954 16.7571C87.6725 16.7571 87.6094 16.8777 87.5806 17.0529H86.9459C86.9833 16.625 87.2475 16.2775 87.9798 16.2804C88.626 16.2832 88.9764 16.536 88.9764 17.1103V18.1241ZM88.3245 17.6503H88.0516C87.6496 17.6503 87.5002 17.7738 87.5002 18.0064C87.5002 18.1816 87.6065 18.3281 87.8477 18.3281C88.2728 18.3281 88.3245 18.0322 88.3245 17.7135V17.6503Z" fill="#444444"/>
<path d="M89.5795 15.347H90.2458V16.5934C90.3463 16.4383 90.5444 16.2804 90.935 16.2804C91.5927 16.2804 91.9201 16.8232 91.9201 17.4981C91.9201 18.173 91.564 18.8019 90.8719 18.8019C90.5129 18.8019 90.3549 18.6928 90.2372 18.5176C90.2372 18.598 90.2257 18.6842 90.2113 18.7474H89.5737C89.5795 18.486 89.5795 18.2218 89.5795 17.9576V15.3441V15.347ZM91.2452 17.5124C91.2452 17.1104 91.0959 16.8146 90.734 16.8146C90.352 16.8146 90.217 17.0615 90.217 17.5555C90.217 17.9605 90.3377 18.2735 90.7254 18.2735C91.0643 18.2735 91.2423 17.9691 91.2423 17.5124H91.2452Z" fill="#444444"/>
<path d="M94.6513 17.5383C94.6513 18.2678 94.2148 18.8048 93.4508 18.8048C92.6869 18.8048 92.2676 18.2707 92.2676 17.5527C92.2676 16.8347 92.7185 16.2833 93.4824 16.2833C94.1918 16.2833 94.6513 16.783 94.6513 17.5412V17.5383ZM92.9454 17.5412C92.9454 18.0064 93.1464 18.2793 93.4681 18.2793C93.7897 18.2793 93.9764 18.0036 93.9764 17.5441C93.9764 17.0386 93.7926 16.8002 93.4594 16.8002C93.1493 16.8002 92.9482 17.03 92.9482 17.5383L92.9454 17.5412Z" fill="#444444"/>
<path d="M95.1107 16.9898C95.1107 16.7514 95.1107 16.536 95.105 16.335H95.7598C95.7684 16.3895 95.777 16.6279 95.777 16.7571C95.8833 16.4814 96.1418 16.2804 96.5496 16.2775V16.9151C96.0642 16.9036 95.777 17.0329 95.777 17.6934V18.7445H95.1107V16.9869V16.9898Z" fill="#444444"/>
<path d="M98.1582 15.5366H98.8532V18.1788H100.453L100.372 18.7474H98.1582V15.5366Z" fill="#444444"/>
<path d="M102.856 18.1241C102.856 18.3539 102.874 18.6899 102.888 18.7474H102.25C102.23 18.6985 102.219 18.5722 102.216 18.5119C102.13 18.6468 101.966 18.8019 101.538 18.8019C100.958 18.8019 100.711 18.42 100.711 18.0466C100.711 17.4981 101.153 17.2425 101.86 17.2425H102.204V17.096C102.204 16.9237 102.144 16.7571 101.834 16.7571C101.552 16.7571 101.489 16.8777 101.461 17.0529H100.826C100.863 16.625 101.127 16.2775 101.86 16.2804C102.506 16.2832 102.856 16.536 102.856 17.1103V18.1241ZM102.204 17.6503H101.932C101.529 17.6503 101.38 17.7738 101.38 18.0064C101.38 18.1816 101.486 18.3281 101.728 18.3281C102.153 18.3281 102.204 18.0322 102.204 17.7135V17.6503Z" fill="#444444"/>
<path d="M103.856 16.335C104.074 17.3028 104.192 17.8542 104.238 18.1529H104.247C104.295 17.8858 104.364 17.5067 104.66 16.335H105.28C105.553 17.5211 105.634 17.8686 105.668 18.1299H105.674C105.723 17.8829 105.797 17.5211 106.079 16.335H106.739L106.024 18.7474H105.309C105.111 17.8312 104.996 17.3516 104.942 17.0328H104.936C104.898 17.3344 104.766 17.8829 104.554 18.7474H103.836L103.152 16.335H103.859H103.856Z" fill="#444444"/>
<path d="M111.053 17.7566C110.924 18.3568 110.473 18.7933 109.669 18.7933C108.649 18.7933 108.169 18.0725 108.169 17.1592C108.169 16.2459 108.666 15.4906 109.703 15.4906C110.559 15.4906 110.972 15.9932 111.05 16.5302H110.355C110.289 16.2833 110.117 16.0363 109.68 16.0363C109.109 16.0363 108.887 16.5504 108.887 17.1362C108.887 17.679 109.08 18.2505 109.7 18.2505C110.154 18.2505 110.298 17.9461 110.358 17.7594H111.056L111.053 17.7566Z" fill="#444444"/>
<path d="M113.781 17.5383C113.781 18.2678 113.345 18.8048 112.581 18.8048C111.817 18.8048 111.397 18.2707 111.397 17.5527C111.397 16.8347 111.848 16.2833 112.612 16.2833C113.322 16.2833 113.781 16.783 113.781 17.5412V17.5383ZM112.075 17.5412C112.075 18.0064 112.276 18.2793 112.598 18.2793C112.92 18.2793 113.106 18.0036 113.106 17.5441C113.106 17.0386 112.922 16.8002 112.589 16.8002C112.279 16.8002 112.078 17.03 112.078 17.5383L112.075 17.5412Z" fill="#444444"/>
<path d="M114.241 16.9898C114.241 16.7514 114.241 16.536 114.235 16.335H114.89C114.899 16.3895 114.907 16.6279 114.907 16.7571C115.014 16.4814 115.272 16.2804 115.68 16.2775V16.9151C115.195 16.9036 114.907 17.0329 114.907 17.6934V18.7445H114.241V16.9869V16.9898Z" fill="#444444"/>
<path d="M116.702 18.5349V19.6722H116.039V16.918C116.039 16.7227 116.039 16.5303 116.033 16.3378H116.679C116.688 16.401 116.702 16.5504 116.702 16.6394C116.806 16.4613 117.021 16.2833 117.403 16.2833C117.946 16.2833 118.362 16.737 118.362 17.4837C118.362 18.3338 117.894 18.8048 117.311 18.8048C116.972 18.8048 116.794 18.6756 116.702 18.5349ZM117.687 17.5067C117.687 17.0644 117.509 16.8146 117.191 16.8146C116.812 16.8146 116.677 17.0587 116.677 17.5441C116.677 18.0036 116.8 18.2735 117.162 18.2735C117.524 18.2735 117.687 17.9978 117.687 17.5067Z" fill="#444444"/>
<path d="M121.096 17.5383C121.096 18.2678 120.66 18.8048 119.896 18.8048C119.132 18.8048 118.712 18.2707 118.712 17.5527C118.712 16.8347 119.163 16.2833 119.927 16.2833C120.637 16.2833 121.096 16.783 121.096 17.5412V17.5383ZM119.39 17.5412C119.39 18.0064 119.591 18.2793 119.913 18.2793C120.235 18.2793 120.421 18.0036 120.421 17.5441C120.421 17.0386 120.237 16.8002 119.904 16.8002C119.594 16.8002 119.393 17.03 119.393 17.5383L119.39 17.5412Z" fill="#444444"/>
<path d="M121.556 16.9898C121.556 16.7514 121.556 16.536 121.55 16.335H122.205C122.214 16.3895 122.222 16.6279 122.222 16.7571C122.329 16.4814 122.587 16.2804 122.995 16.2775V16.9151C122.51 16.9036 122.222 17.0329 122.222 17.6934V18.7445H121.556V16.9869V16.9898Z" fill="#444444"/>
<path d="M125.312 18.1241C125.312 18.3539 125.33 18.6899 125.344 18.7474H124.706C124.686 18.6985 124.675 18.5722 124.672 18.5119C124.586 18.6468 124.422 18.8019 123.994 18.8019C123.414 18.8019 123.167 18.42 123.167 18.0466C123.167 17.4981 123.609 17.2425 124.316 17.2425H124.66V17.096C124.66 16.9237 124.6 16.7571 124.29 16.7571C124.008 16.7571 123.945 16.8777 123.917 17.0529H123.282C123.319 16.625 123.583 16.2775 124.316 16.2804C124.962 16.2832 125.312 16.536 125.312 17.1103V18.1241ZM124.66 17.6503H124.388C123.985 17.6503 123.836 17.7738 123.836 18.0064C123.836 18.1816 123.942 18.3281 124.184 18.3281C124.609 18.3281 124.66 18.0322 124.66 17.7135V17.6503Z" fill="#444444"/>
<path d="M125.634 16.3349H126.004V15.683H126.673V16.3349H127.144V16.8375H126.673V18.0265C126.673 18.2103 126.728 18.2792 126.929 18.2792C126.966 18.2792 127.032 18.2792 127.081 18.2706V18.7301C126.949 18.7761 126.768 18.7761 126.633 18.7761C126.162 18.7761 126.007 18.5233 126.007 18.1012V16.8318H125.637V16.3292L125.634 16.3349Z" fill="#444444"/>
<path d="M127.518 15.347H128.184V15.9415H127.518V15.347ZM127.518 16.3349H128.184V18.7474H127.518V16.3349Z" fill="#444444"/>
<path d="M131.03 17.5383C131.03 18.2678 130.594 18.8048 129.83 18.8048C129.066 18.8048 128.646 18.2707 128.646 17.5527C128.646 16.8347 129.097 16.2833 129.861 16.2833C130.571 16.2833 131.03 16.783 131.03 17.5412V17.5383ZM129.321 17.5412C129.321 18.0064 129.522 18.2793 129.844 18.2793C130.166 18.2793 130.352 18.0036 130.352 17.5441C130.352 17.0386 130.169 16.8002 129.835 16.8002C129.525 16.8002 129.324 17.03 129.324 17.5383L129.321 17.5412Z" fill="#444444"/>
<path d="M131.493 16.9438C131.493 16.7399 131.493 16.513 131.487 16.335H132.133C132.147 16.3981 132.156 16.5647 132.159 16.6423C132.242 16.49 132.435 16.2804 132.86 16.2804C133.345 16.2804 133.658 16.6078 133.658 17.2138V18.7474H132.992V17.2885C132.992 17.0185 132.903 16.8203 132.607 16.8203C132.311 16.8203 132.162 16.9783 132.162 17.4033V18.7474H131.495V16.9438H131.493Z" fill="#444444"/>
<path d="M30.2422 26.4212C30.3255 26.022 30.3686 25.6343 30.3686 25.2552V24.9938H27.9475V24.5114H30.9114V25.1949C30.9114 25.5826 30.8654 25.9904 30.7764 26.4212H31.4054V26.9094H27.4995V26.4212H30.2451H30.2422ZM30.9947 28.7819H28.0021V27.3546H28.5535V28.2995H30.9947V28.7819Z" fill="#444444"/>
<path d="M36.9854 26.6165H33.0796V26.1541H34.461V25.3844H35.0038V26.1541H36.9883V26.6165H36.9854ZM36.3823 25.9129H35.851C35.9171 25.6372 35.9515 25.3414 35.9515 25.0254V24.9594H33.5305V24.497H36.4943V24.9738C36.4943 25.3184 36.457 25.6314 36.3852 25.9129H36.3823ZM36.5547 28.782H33.5621V27.6332H35.963V27.3431H33.5621V26.9152H36.5058V28.0554H34.1049V28.3512H36.5547V28.782Z" fill="#444444"/>
<path d="M40.9374 24.5745C40.9374 24.721 40.9287 24.8617 40.9086 24.9967H41.7358V24.3994H42.2786V26.9353H41.7358V26.4528H40.7306V25.9818H41.7358V25.4706H40.7823C40.676 25.752 40.5123 25.999 40.294 26.2087C39.9121 26.5763 39.464 26.829 38.9471 26.9669L38.6714 26.5849C39.1567 26.427 39.5445 26.2173 39.8317 25.9531C40.1303 25.6774 40.2969 25.3816 40.3343 25.0599H38.9729V24.5774H40.9374V24.5745ZM41.7358 28.8365V27.7078H39.4612V27.2196H42.2786V28.8365H41.7358Z" fill="#444444"/>
<path d="M46.1239 24.5946C46.1239 24.8043 46.1124 25.0053 46.0894 25.1978H46.592V24.3994H47.1004V28.782H46.592V26.9094H45.9631V26.4126H46.592V25.6946H46.0033C45.9257 26.0191 45.8109 26.3121 45.6615 26.5734C45.3427 27.1191 44.9723 27.5556 44.553 27.883L44.1509 27.5355C44.5558 27.2311 44.9033 26.8319 45.1963 26.3351C45.4117 25.9703 45.5265 25.5539 45.5438 25.0858H44.395V24.5946H46.1268H46.1239ZM47.4709 24.3965H47.9936V28.7791H47.4709V24.3965Z" fill="#444444"/>
<path d="M54.9093 26.5275H52.8242V24.5602H54.9093V26.5275ZM56.2849 27.6705H55.0442C55.0816 27.8371 55.2309 27.995 55.4923 28.1415C55.7393 28.2794 56.0753 28.3856 56.4975 28.4632L56.2103 28.8509C55.7507 28.782 55.3602 28.6384 55.0356 28.423C54.9207 28.3483 54.826 28.2736 54.7484 28.1932C54.668 28.2736 54.5704 28.3512 54.4584 28.423C54.1338 28.6384 53.7432 28.7791 53.2837 28.8509L52.9965 28.4632C53.4187 28.3856 53.7519 28.2794 54.0017 28.1415C54.2631 27.995 54.4124 27.8371 54.4497 27.6705H53.2091V27.2081H54.4555V26.7917H55.0442V27.2081H56.2907V27.6705H56.2849ZM54.3693 25.0111H53.3613V26.0766H54.3693V25.0111ZM56.1442 24.3965V26.7859H55.6014V24.3965H56.1442Z" fill="#444444"/>
<path d="M61.0757 26.852V24.5573H61.6185V26.3638H62.3221C62.8075 26.3638 63.2526 26.3293 63.6576 26.2633V24.3965H64.2004V25.551H64.8035V26.0536H64.2004V27.6045H63.6576V26.7515C63.2497 26.8175 62.7902 26.852 62.2819 26.852H61.0757ZM64.3239 28.782H61.4806V27.3747H62.032V28.2937H64.321V28.782H64.3239Z" fill="#444444"/>
<path d="M67.9795 25.2868V25.416C67.9795 25.6142 68.0743 25.8066 68.2667 25.9991C68.4333 26.1656 68.6746 26.3265 68.9905 26.4815L68.7033 26.8721C68.3644 26.7228 68.0714 26.5217 67.8245 26.2748C67.7842 26.2346 67.7498 26.1943 67.7182 26.1541C67.678 26.2116 67.6349 26.269 67.5861 26.3236C67.3305 26.6309 67.0548 26.8664 66.7532 27.033L66.4028 26.6567C66.6986 26.5016 66.9428 26.3092 67.1352 26.0737C67.3305 25.8382 67.4253 25.62 67.4253 25.416V25.2868H66.466V24.8101H67.4253V24.3276H67.9767V24.8101H68.9101V25.2868H67.9767H67.9795ZM69.9468 27.9577C69.9468 28.1013 69.9152 28.2363 69.8549 28.3655C69.7946 28.4948 69.7113 28.6039 69.6079 28.6958C69.5045 28.7935 69.3839 28.8681 69.2432 28.9256C69.1053 28.9801 68.956 29.0089 68.798 29.0089C68.6401 29.0089 68.4936 28.9801 68.3529 28.9256C68.215 28.871 68.0915 28.7935 67.9882 28.6958C67.8848 28.601 67.8015 28.4919 67.7412 28.3655C67.6809 28.2392 67.6521 28.1013 67.6521 27.9577C67.6521 27.8141 67.6809 27.6791 67.7412 27.5499C67.8015 27.4235 67.8848 27.3115 67.9882 27.2196C68.0915 27.122 68.2122 27.0473 68.3529 26.9899C68.4907 26.9353 68.6401 26.9066 68.798 26.9066C68.956 26.9066 69.1025 26.9353 69.2432 26.9899C69.381 27.0444 69.5045 27.122 69.6079 27.2196C69.7113 27.3144 69.7946 27.4235 69.8549 27.5499C69.9152 27.6763 69.9468 27.8141 69.9468 27.9577ZM69.4069 27.9577C69.4069 27.7998 69.3466 27.6648 69.2288 27.5528C69.1111 27.4408 68.9675 27.3833 68.8038 27.3833C68.6401 27.3833 68.4994 27.4408 68.3787 27.5528C68.261 27.6648 68.2007 27.7998 68.2007 27.9577C68.2007 28.1157 68.261 28.2507 68.3787 28.3627C68.4965 28.4747 68.6401 28.5321 68.8038 28.5321C68.9675 28.5321 69.1082 28.4776 69.2288 28.3627C69.3495 28.2478 69.4069 28.1157 69.4069 27.9577ZM70.0071 24.3965V26.9669H69.4643V26.0479H68.7205V25.5711H69.4643V24.3965H70.0071Z" fill="#444444"/>
<path d="M76.1707 24.9307C76.1707 25.3729 76.2654 25.7233 76.4521 25.9847C76.6704 26.2834 76.9346 26.5332 77.2448 26.7314L76.9174 27.099C76.59 26.8951 76.2884 26.6136 76.0127 26.2546C75.9696 26.1972 75.9294 26.1369 75.8921 26.0737C75.8519 26.1455 75.8088 26.2116 75.7629 26.2805C75.5015 26.6567 75.2028 26.9497 74.8697 27.1593L74.5078 26.8032C74.8323 26.605 75.108 26.3437 75.3321 26.0134C75.5216 25.7348 75.6193 25.373 75.6193 24.9278V24.5114H76.1707V24.9278V24.9307ZM78.1897 28.782H75.3464V27.3747H75.8978V28.2937H78.1868V28.782H78.1897ZM78.0633 24.3965V25.551H78.6664V26.0536H78.0633V27.6045H77.5205V24.3965H78.0633Z" fill="#444444"/>
<path d="M81.047 25.5769V25.0743H80.2945V24.5918H82.2273V25.0743H81.5754V25.5769C81.5754 26.0364 81.6529 26.404 81.8109 26.6826C81.9775 26.9812 82.19 27.2254 82.4427 27.4206L82.1211 27.7567C81.7994 27.5126 81.5438 27.211 81.3514 26.852C81.337 26.829 81.3255 26.8061 81.3169 26.7802L81.2681 26.8692C81.0154 27.3144 80.7598 27.6303 80.4984 27.8141L80.1279 27.4924C80.3979 27.2828 80.6277 27.0042 80.8115 26.6625C80.9694 26.3666 81.047 26.0048 81.047 25.574V25.5769ZM83.491 26.3149H83.0803V28.782H82.5576V24.3994H83.0803V25.8267H83.491V24.3994H84.0223V28.782H83.491V26.3149Z" fill="#444444"/>
<path d="M89.2666 26.9985H88.0662V27.8314H89.7491V28.3225H85.8433V27.8314H87.5262V26.9985H86.3257V24.543H86.8685V25.2552H88.7267V24.543H89.2695V26.9985H89.2666ZM88.7238 26.5131V25.7492H86.8657V26.5131H88.7238Z" fill="#444444"/>
<path d="M92.9226 24.8962C92.9226 25.2466 93.0174 25.5395 93.2041 25.7693C93.3908 25.9962 93.6435 26.2001 93.9565 26.3781L93.6464 26.7658C93.3075 26.5907 93.0117 26.3523 92.7589 26.0479C92.7273 26.0105 92.7015 25.9732 92.6728 25.9387C92.6354 26.0077 92.5924 26.0766 92.5435 26.1398C92.2851 26.4815 91.9892 26.7457 91.6561 26.9324L91.3086 26.5648C91.6303 26.3896 91.8973 26.1599 92.107 25.8727C92.2851 25.6314 92.3741 25.3069 92.3741 24.8991V24.5171H92.9255V24.8991L92.9226 24.8962ZM94.8152 27.9433C94.8152 28.0869 94.7837 28.2248 94.7233 28.354C94.6602 28.4833 94.5797 28.5982 94.4735 28.6958C94.3672 28.7906 94.2437 28.8652 94.103 28.9227C93.9623 28.9801 93.8129 29.0088 93.6521 29.0088C93.4913 29.0088 93.3419 28.9801 93.2012 28.9227C93.0605 28.8652 92.937 28.7906 92.8307 28.6958C92.7273 28.5982 92.6441 28.4861 92.5809 28.354C92.5177 28.2219 92.489 28.0869 92.489 27.9433C92.489 27.7998 92.5206 27.6619 92.5809 27.5327C92.6412 27.4034 92.7245 27.2885 92.8307 27.1909C92.937 27.0961 93.0605 27.0215 93.2012 26.964C93.3419 26.9066 93.4913 26.8779 93.6521 26.8779C93.8129 26.8779 93.9623 26.9066 94.103 26.964C94.2437 27.0215 94.3672 27.0961 94.4735 27.1909C94.5769 27.2885 94.6602 27.4006 94.7233 27.5327C94.7837 27.6619 94.8152 27.7998 94.8152 27.9433ZM94.2724 27.9433C94.2724 27.7825 94.2121 27.6447 94.0886 27.5298C93.968 27.4149 93.8216 27.3575 93.6492 27.3575C93.4769 27.3575 93.3333 27.4149 93.2098 27.5298C93.0863 27.6447 93.026 27.7825 93.026 27.9433C93.026 28.1042 93.0863 28.242 93.2098 28.3569C93.3333 28.4718 93.4798 28.5292 93.6492 28.5292C93.8187 28.5292 93.9651 28.4718 94.0886 28.3569C94.2121 28.242 94.2724 28.1042 94.2724 27.9433ZM94.8152 24.3965V25.3816H95.4184V25.8842H94.8152V26.9238H94.2724V24.3994H94.8152V24.3965Z" fill="#444444"/>
<path d="M98.2818 25.0197C98.2818 25.4419 98.3421 25.7607 98.4628 25.9789C98.6437 26.2977 98.8533 26.5677 99.0917 26.786L98.7442 27.1076C98.48 26.8779 98.2474 26.5935 98.0521 26.2546C98.0377 26.2345 98.0262 26.2144 98.0176 26.1943L97.9688 26.2834C97.7534 26.6596 97.5064 26.964 97.2249 27.2024L96.8286 26.8721C97.1129 26.6481 97.3513 26.3609 97.5409 26.0077C97.6844 25.7434 97.7562 25.4132 97.7562 25.014V24.5114H98.2847V25.0197H98.2818ZM100.821 28.782H97.8884V27.3862H98.4197V28.3052H100.821V28.782ZM99.8384 27.6073H99.3157V25.8353H98.6868V25.3385H99.3157V24.3994H99.8384V27.6073ZM100.223 24.3965H100.755V27.6045H100.223V24.3965Z" fill="#444444"/>
<path d="M102.857 27.7481V24.5631H104.735V25.0455H103.394V25.8956H104.62V26.3666H103.394V27.2771H103.977C104.393 27.2771 104.827 27.2455 105.284 27.1823V27.6533C104.859 27.7165 104.419 27.7481 103.968 27.7481H102.86H102.857ZM105.694 24.3965H106.237V28.7791H105.694V26.3494H105.011V25.8583H105.694V24.3965Z" fill="#444444"/>
<path d="M82.2849 17.3287H59.2432V17.702H82.2849V17.3287Z" fill="#444444"/>
</g>
<defs>
<clipPath id="clip0_98_11217">
<rect width="133.322" height="28.4352" fill="white" transform="translate(0.336426 0.573669)"/>
</clipPath>
</defs>
</svg>
